# xmcd
#
# Track frame offsets:
#	150
#	13070
#	25327
#	40820
#	56365
#	68792
#	82715
#	95080
#	108777
#	130390
#	149315
#	164942
#	179132
#	192997
#	208677
#	222042
#	233382
#	245820
#
# Disc length: 3468 seconds
#
# Revision: 1
# Processed by: cddbd v1.4PL0 Copyright (c) Steve Scherf et al.
# Submitted via: audiograbber 1.81.03
#
DISCID=030d8a12
DTITLE=Various Artist - Basta Dansbanden 94 Disc1
DYEAR=1900
DGENRE=Ethnic
TTITLE0=Vikingarna - Kommer du till sommaren
TTITLE1=Thorleifs - Ingen får mig att längta som du
TTITLE2=Christina Lindbergs - Ett litet hus intill vägen
TTITLE3=Lasse Stefanz - Du försvann som en vind
TTITLE4=Streaplers - Ta en titt på kärleken
TTITLE5=Leif Bloms - Dej skall jag älska all min tid
TTITLE6=Matz Bladhs - I en gul luftballong
TTITLE7=Bodil Hovenlids - En riktig vän
TTITLE8=Sven-Ingvars - Byns enda blondin
TTITLE9=Arvingarna - Räck mig din hand
TTITLE10=Lotta o Anders Engberg - Kärlek gör mig tokig
TTITLE11=Nick Borgens - We are all the winners
TTITLE12=Göran Lindbergs - Den röda stugan
TTITLE13=Berth Idoffs - Efter regnet kommer solsken
TTITLE14=Grönwalls - Mr Blue eye
TTITLE15=Thor Görans - I mitt innersta hjärta
TTITLE16=Drifters - Kommer tid kommer råd
TTITLE17=Sten o Stanley - Rosor doftar alltid som mest när det skymmer
EXTD=
EXTT0=
EXTT1=
EXTT2=
EXTT3=
EXTT4=
EXTT5=
EXTT6=
EXTT7=
EXTT8=
EXTT9=
EXTT10=
EXTT11=
EXTT12=
EXTT13=
EXTT14=
EXTT15=
EXTT16=
EXTT17=
PLAYORDER=
